<svg id="Layer_1" data-name="Layer 1" xmlns="http://www.w3.org/2000/svg" xmlns:xlink="http://www.w3.org/1999/xlink" viewBox="0 0 619.1 548.52"><defs><style>.cls-1{fill:url(#linear-gradient);}.cls-2{fill:url(#linear-gradient-2);}.cls-3{fill:url(#linear-gradient-3);}.cls-4{fill:url(#linear-gradient-4);}</style><linearGradient id="linear-gradient" x1="233.02" y1="334.36" x2="400.97" y2="334.36" gradientUnits="userSpaceOnUse"><stop offset="0.01" stop-color="#ebc17d"/><stop offset="0.19" stop-color="#dfb77c"/><stop offset="0.6" stop-color="#c08329"/><stop offset="0.87" stop-color="#eabe81"/><stop offset="1" stop-color="#eedcc3"/></linearGradient><linearGradient id="linear-gradient-2" x1="163.56" y1="193.44" x2="414.45" y2="193.44" gradientUnits="userSpaceOnUse"><stop offset="0.01" stop-color="#ebc17d"/><stop offset="0.19" stop-color="#dfb77c"/><stop offset="0.6" stop-color="#c08329"/></linearGradient><linearGradient id="linear-gradient-3" x1="164.04" y1="336.76" x2="455.54" y2="336.76" gradientUnits="userSpaceOnUse"><stop offset="0.01" stop-color="#ebc17d"/><stop offset="0.08" stop-color="#e3b66f"/><stop offset="0.23" stop-color="#d7a55b"/><stop offset="0.37" stop-color="#cf9b4f"/><stop offset="0.51" stop-color="#cd984b"/><stop offset="0.65" stop-color="#cf9b4f"/><stop offset="0.79" stop-color="#d3a35c"/><stop offset="0.94" stop-color="#dbb172"/><stop offset="1" stop-color="#dfb77c"/></linearGradient><linearGradient id="linear-gradient-4" x1="254.62" y1="375.49" x2="254.62" y2="297.17" gradientUnits="userSpaceOnUse"><stop offset="0.34" stop-color="#c38a33"/><stop offset="0.99" stop-color="#c08329"/></linearGradient></defs><title>editables</title><path class="cls-1" d="M233.11,375.49,233,415.11h43.1V375.49ZM376.4,254.77l-143-1.16-.1,43.56h42.82v-.95h52.77c30.26,0,56.87-14.53,72.08-37.37A79,79,0,0,0,376.4,254.77Z"/><path class="cls-2" d="M389.39,153.09A85.3,85.3,0,0,0,328.89,128H163.56v45.11h70l-.19,80.46,143,1.16A79,79,0,0,1,401,258.85a81.11,81.11,0,0,0,13.48-45.26A85.33,85.33,0,0,0,389.39,153.09Zm-58.3,98.38h-55V173.15l55,0a39.15,39.15,0,1,1,0,78.3Z"/><path class="cls-3" d="M401,258.85a79,79,0,0,0-24.57-4.08l-143-1.16L164,253V420.48H370.55a85,85,0,0,0,85-85v-.93A79.81,79.81,0,0,0,401,258.85ZM372.42,375.49H208.9V297.17H372.42a39.16,39.16,0,0,1,0,78.32Z"/><polygon class="cls-4" points="276.12 297.17 276.12 375.49 233.11 375.49 233.3 297.17 276.12 297.17"/></svg>